<svg width="200" height="192" viewBox="0 0 200 192" fill="none" xmlns="http://www.w3.org/2000/svg">
<g clip-path="url(#clip0_1_2)">
<path d="M99.9783 51.5464C109.985 54.3073 117.446 55.6095 117.446 55.6095C113.154 51.3155 109.313 46.8999 105.988 42.7239C111.796 34.5108 116.371 28.8259 116.371 28.8259C110.211 30.1907 104.387 31.8593 99.1708 33.5732C94.2152 26.4557 91.4943 21.4463 91.4943 21.4463C90.0479 26.7891 89.3499 32.1389 89.1155 37.164C80.8364 40.3711 75.662 42.9913 75.662 42.9913C80.1384 45.0089 84.7867 46.7696 89.2874 48.2855C90.0166 57.9484 91.9701 64.6561 91.9701 64.6561C94.4809 60.1745 97.24 55.7172 99.9783 51.5464Z" fill="white"/>
<path d="M145.656 49.0113C144.294 51.1418 142.212 52.6612 139.778 53.7308C139.444 46.8964 138.399 40.8486 138.399 40.8486C136.321 46.464 134.112 51.4474 131.983 55.7484C124.647 56.6896 117.446 55.6095 117.446 55.6095C121.395 60.3464 124.463 63.1558 126.946 65.052C123.232 71.3134 120.542 74.6559 120.542 74.6559C125.734 73.4682 129.861 71.4957 133.145 69.1585C134.489 70.0805 135.645 71.1102 136.788 72.8535C136.788 72.8535 138.906 69.8496 139.632 62.8919C144.878 56.0315 145.656 49.0113 145.656 49.0113Z" fill="white"/>
<path d="M143.259 30.0674C140.92 24.8079 137.552 20.8403 133.878 17.852C130.745 11.2711 127.139 8.23242 127.139 8.23242C127.443 9.74654 127.212 11.4604 126.649 13.2297C118.847 9.3628 111.732 8.82453 111.732 8.82453C116.264 11.7955 120.287 15.4783 123.742 19.2758C120.56 24.4554 116.373 28.8259 116.373 28.8259C121.923 27.5757 126.389 27.0496 129.962 26.9541C135.446 34.5056 138.399 40.8486 138.399 40.8486C138.505 35.7436 137.995 31.2915 137.142 27.4489C141.785 28.3345 143.259 30.0674 143.259 30.0674Z" fill="white"/>
<path d="M111.732 8.82453C107.947 6.92146 104.324 5.59486 100.956 4.68326C105.245 1.05597 109.233 0.137421 109.233 0.137421C102.348 -0.135191 96.4274 1.10806 91.4718 3.0146C84.0713 2.42423 79.3571 3.70742 79.3571 3.70742C80.4649 4.54262 81.4008 6.0359 82.3575 7.8209C76.1031 12.1028 72.9272 16.5653 72.9272 16.5653C76.6969 14.6935 80.6975 13.2749 84.6409 12.1931C85.0715 12.9832 85.5229 13.7715 86.0178 14.5424C88.6293 18.609 91.4961 21.4463 91.4961 21.4463C92.5206 16.5723 94.283 12.7765 96.3093 9.83163C105.111 8.60748 111.732 8.82453 111.732 8.82453Z" fill="white"/>
<path d="M64.2175 23.8373C66.5756 21.5574 69.4493 19.1004 72.9272 16.5653C72.9272 16.5653 69.7184 16.5653 66.3273 17.4283C68.5707 11.9969 71.0589 8.98601 71.0589 8.98601C71.0589 8.98601 56.7772 19.1438 54.0649 37.3984C54.0649 37.3984 55.2648 34.0975 59.3348 29.1193C60.9497 32.7379 62.8094 35.0161 62.8094 35.0161C62.8337 30.8488 63.398 27.1034 64.2175 23.8373Z" fill="white"/>
<path d="M75.6637 42.9913C70.7064 43.1475 66.8186 43.5816 63.7904 44.1355C62.9395 38.8309 62.8093 35.0161 62.8093 35.0161C60.361 38.7528 58.7757 42.3558 57.7947 45.7104C54.3427 46.9902 53.4711 48.2282 53.4711 48.2282C54.0093 50.067 55.0859 51.8572 56.4455 53.5346C56.0201 61.482 58.5917 66.7328 58.5917 66.7328C59.1699 63.9476 60.3228 61.2354 61.771 58.7003C65.999 62.0897 70.1872 64.3001 70.1872 64.3001C68.2147 60.7631 66.7613 56.8024 65.6952 52.9685C70.4355 47.0179 75.6637 42.9913 75.6637 42.9913Z" fill="white"/>
<path d="M100.188 83.5878C100.188 83.5878 96.0298 81.9278 90.0757 78.5731C90.2875 74.9945 90.8397 70.4382 91.9718 64.6561C91.9718 64.6561 87.2402 69.3391 81.1125 72.9681C77.5564 70.5111 73.818 67.6253 70.1872 64.3001C70.1872 64.3001 71.9548 69.761 75.3599 75.7741C72.1285 76.9826 68.7981 77.5435 65.7525 76.7986C65.7525 76.7986 69.3503 81.2906 80.4475 83.1971C83.5243 86.8487 87.2732 89.8648 91.6489 90.9136C91.6489 90.9136 90.331 89.4672 90.0375 84.0393C93.064 84.0809 96.4343 83.9472 100.188 83.5878Z" fill="white"/>
<path d="M120.304 83.1294C121.258 78.7381 120.542 74.6559 120.542 74.6559C117.735 78.693 114.975 81.7664 112.421 84.107C105.55 84.463 100.188 83.5878 100.188 83.5878C100.188 83.5878 103.255 86.6508 106.792 88.4184C102.123 91.306 98.9938 91.563 98.9938 91.563C119.433 91.9954 131.698 78.6513 131.698 78.6513C128.254 80.9242 124.265 82.3133 120.304 83.1294Z" fill="white"/>
<path d="M77.5963 135.502C82.7655 129.588 90.3656 125.849 98.8374 125.849C107.549 125.849 115.342 129.803 120.513 136.012L121.879 134.733C116.37 128.181 108.11 124.016 98.8774 124.016C89.8846 124.016 81.8139 127.966 76.3062 134.231L77.5963 135.502Z" fill="white"/>
<path d="M134.121 119.921C125.326 110.677 112.902 104.908 99.1344 104.908C85.2017 104.908 72.6459 110.81 63.8356 120.253L62.3475 118.74C71.6006 109.05 84.6495 103.014 99.0997 103.014C113.442 103.014 126.39 108.953 135.631 118.508L134.121 119.921Z" fill="white"/>
<path d="M143.987 160.71C137.88 160.71 134.168 155.589 134.168 149.974C134.168 144.143 138.495 139.91 144.141 139.91C150.401 139.91 154.174 144.878 154.174 150.342C154.174 156.814 149.482 160.713 143.987 160.71ZM143.646 142.855C139.847 142.855 138.71 146.477 138.71 148.932C138.71 152.519 140.304 157.767 144.692 157.767C147.819 157.767 149.637 154.976 149.637 151.629C149.637 148.071 148.253 142.855 143.646 142.855Z" fill="white"/>
<path d="M106.585 157.798C106.585 158.904 106.802 159.3 108.584 159.64V160.406C106.649 160.314 105.45 160.224 104.316 160.224C103.178 160.224 101.982 160.316 100.633 160.406V159.64C101.833 159.427 102.046 158.904 102.046 157.459V142.455C102.046 141.598 101.675 141.197 100.633 141.167V140.313H109.716C115.396 140.313 117.452 143.016 117.452 146.572C117.448 150.38 114.562 152.71 110.607 152.71C109.105 152.71 106.893 151.943 106.893 151.301C106.893 151.021 107.075 151.021 107.356 151.021C107.629 151.021 108.03 151.116 108.426 151.116C111.647 151.116 112.906 149.305 112.906 146.755C112.906 143.997 111.188 143.015 108.487 143.015L106.584 143.214L106.585 157.798Z" fill="white"/>
<path d="M123.381 142.271C123.381 141.41 123.011 141.012 121.968 140.983V140.179C123.317 140.275 124.519 140.363 125.654 140.363C126.788 140.363 127.988 140.273 129.33 140.179V140.983C128.293 141.014 127.92 141.41 127.92 142.271V158.35C127.92 159.208 128.29 159.609 129.33 159.639V160.406C127.983 160.318 126.784 160.226 125.654 160.224C124.519 160.224 123.317 160.319 121.968 160.406V159.64C123.013 159.609 123.381 159.21 123.381 158.352V142.271Z" fill="white"/>
<path d="M160.324 142.252C160.324 141.395 159.96 140.997 158.913 140.967V140.163C160.264 140.259 161.458 140.347 162.596 140.349C163.426 140.349 164.344 140.349 165.296 140.163L173.766 153.888H173.825V142.681C173.825 141.091 172.816 140.967 171.984 140.967V140.167C172.995 140.259 173.976 140.349 174.929 140.349C175.943 140.349 176.957 140.257 177.938 140.167V140.967C176.893 140.999 176.527 141.395 176.527 142.252V160.41H173.269L163.084 144.558H163.023V157.907C163.023 159.501 164.039 159.627 164.867 159.627V160.392C163.853 160.297 162.87 160.21 161.917 160.21C160.906 160.21 159.894 160.298 158.913 160.392V159.625C159.956 159.592 160.324 159.191 160.324 158.333V142.252Z" fill="white"/>
<path d="M184.215 153.429C184.844 156.871 187.106 158.482 190.487 158.482C192.35 158.482 195.031 157.946 195.031 155.579C195.031 153.681 193.078 153.174 191.621 152.735L189.378 152.072C186.158 151.125 182.934 149.766 182.934 146.034C182.934 141.141 187.672 139.658 192.38 139.658C194.37 139.658 196.426 140.004 198.256 140.669C198.256 142.942 198.381 144.867 198.507 146.508H197.719C197.054 143.603 194.687 142.247 191.845 142.247C190.267 142.247 187.61 142.749 187.61 144.93C187.61 146.668 189.128 147.17 190.421 147.553L193.736 148.5C196.934 149.413 199.9 150.585 199.9 154.69C199.9 158.861 195.698 161.071 190.548 161.071C188.242 161.071 185.813 160.693 183.691 159.936C183.691 157.439 183.594 155.261 183.443 153.428L184.215 153.429Z" fill="white"/>
<path d="M24.6628 142.268C24.6628 141.407 24.2982 141.007 23.2529 140.979V140.179C24.6038 140.271 25.7967 140.36 26.9305 140.36C28.0713 140.36 29.2677 140.269 30.6134 140.179V140.979C29.575 141.009 29.2052 141.407 29.2052 142.268V148.345H36.6317V142.268C36.6317 141.407 36.2618 141.007 35.2183 140.979V140.179C36.5657 140.271 37.769 140.36 38.9011 140.36C40.035 140.36 41.2331 140.269 42.5823 140.179V140.983C41.5404 141.009 41.1706 141.407 41.1706 142.268L41.1654 158.35C41.1654 159.208 41.5404 159.609 42.5805 159.639V160.422C41.2314 160.328 40.0333 160.238 38.8994 160.238C37.7673 160.238 36.564 160.33 35.2165 160.422V159.639C36.2618 159.607 36.63 159.208 36.63 158.35V151.294H29.2035V158.35C29.2035 159.208 29.5664 159.609 30.6117 159.639V160.422C29.2608 160.328 28.0696 160.238 26.9288 160.238C25.7949 160.238 24.5986 160.33 23.2477 160.422V159.639C24.2965 159.607 24.6594 159.208 24.6594 158.35V142.268" fill="white"/>
<path d="M53.9416 151.629C54.7421 149.451 55.7232 147.027 56.4264 144.57H56.4906C57.1036 147.672 57.621 149.634 58.2669 151.629H53.9416ZM46.5134 160.406C47.5899 160.314 48.6318 160.224 49.7049 160.224C50.7502 160.224 51.825 160.316 52.8651 160.406V159.64C51.8545 159.58 51.4221 159.21 51.4221 158.659C51.4221 158.352 51.5159 158.015 51.6704 157.586L53.0196 153.964H59.0014L59.9825 156.939C60.1405 157.338 60.2916 158.045 60.2916 158.475C60.2916 159.18 59.8939 159.429 58.7549 159.642V160.406C60.0763 160.314 61.3959 160.224 62.7138 160.224C64.0022 160.224 65.3236 160.316 66.6085 160.406V159.64C65.6917 159.394 65.2316 158.996 64.768 157.645L59.123 140.181C58.1714 140.273 57.1887 140.361 56.2406 140.361C55.2891 140.361 54.3375 140.271 53.3547 140.181V140.985C54.1847 140.985 54.5233 141.473 54.5233 141.778C54.5233 142.087 54.308 142.516 54.1257 142.976L48.1109 158.227C47.8001 159.024 47.4024 159.517 46.5117 159.639L46.5134 160.406Z" fill="white"/>
<path d="M72.8057 145.154C72.8352 144.296 72.8994 143.435 72.8994 142.211C72.8994 141.254 72.6841 141.138 71.519 140.983V140.179C72.4376 140.271 73.5436 140.36 74.6514 140.36C75.754 140.36 76.8584 140.269 77.9592 140.179L83.3368 154.407L88.1501 140.179C89.2231 140.275 90.2702 140.36 91.3398 140.36C92.4163 140.36 93.4894 140.273 94.5347 140.179V140.983C93.4634 141.075 93.3054 141.41 93.3054 142.244C93.3054 143.098 93.4269 144.478 93.5189 145.525L94.5 158.626C94.566 159.427 95.455 159.548 96.068 159.64V160.406C94.7466 160.314 93.3974 160.224 92.0743 160.224C90.7251 160.224 89.4107 160.316 88.1483 160.406V159.64C89.6486 159.456 90.0514 159.178 90.0514 157.769C90.0514 157.032 89.9576 155.648 89.8708 154.638L89.1658 145.492H89.1016L83.981 160.576H81.4007L75.5422 145.308H75.4797L75.2349 154.303C75.2019 155.897 75.1394 156.723 75.1394 157.552C75.1394 159.086 75.2939 159.427 77.1362 159.64V160.406C75.9068 160.314 74.773 160.224 73.6061 160.224C72.4723 160.224 71.3332 160.316 70.3834 160.406V159.64C71.5798 159.548 72.0729 159.274 72.1337 157.982L72.8057 145.154Z" fill="white"/>
<path d="M18.6306 159.283C16.5279 160.892 13.5152 161.543 11.5479 161.543C4.23256 161.543 0.0999756 155.864 0.0999756 150.05C0.0999756 144.096 4.23256 138.349 12.1574 138.349C14.9391 138.349 16.9324 138.878 17.7086 139.182C17.7086 141.509 17.8354 143.753 18.0055 145.975H17.12C16.5765 143.136 14.6022 141.634 11.7511 141.634C7.88938 141.634 4.91148 144.673 4.91148 149.807C4.91148 153.674 8.096 158.048 12.562 158.048C14.4616 158.048 17.1946 157.013 19.0196 155.473L18.6306 159.283Z" fill="white"/>
<path d="M51.8476 171.502C51.8476 170.84 51.5646 170.531 50.7606 170.508V169.859C51.8024 169.93 52.7262 170.001 53.6048 170.001C54.5998 170.001 56.0392 169.93 56.7303 169.859V170.508C55.5235 170.555 55.3568 171.146 55.3568 171.812V183.41H59.7377C61.2987 183.41 61.9412 182.701 62.3405 180.901H63.108C62.8215 182.441 62.5628 183.957 62.5402 185.495H50.7606V184.849C51.5646 184.823 51.8476 184.519 51.8476 183.852V171.502Z" fill="white"/>
<path d="M66.9245 171.583C66.9245 170.918 66.6415 170.609 65.8358 170.587V169.937H77.8047C77.8359 171.241 77.8759 172.299 77.9974 173.58H77.3463C77.1119 172.276 76.7802 171.828 75.4988 171.828H70.4355V176.405H73.5818C74.6497 176.405 74.8129 176.047 74.9553 175.197H75.603C75.5318 175.787 75.4606 176.81 75.4606 177.452C75.4606 178.089 75.5318 179.131 75.603 179.703H74.9553C74.8129 178.846 74.6497 178.491 73.5818 178.491H70.4355V183.411H75.761C77.0407 183.411 77.44 182.988 77.8446 180.993H78.6347C78.4228 182.939 78.3742 184.196 78.3516 185.497H65.8358V184.851C66.6415 184.825 66.9245 184.521 66.9245 183.854V171.583Z" fill="white"/>
<path d="M81.4736 184.854C82.1595 184.759 82.4686 184.384 82.7099 183.769L87.3513 172.024C87.4954 171.67 87.6551 171.338 87.6551 171.104C87.6551 170.864 87.4016 170.489 86.7592 170.489V169.845C87.5145 169.916 88.2525 169.987 88.987 169.987C89.7197 169.987 90.4785 169.916 91.2147 169.845L95.5748 183.319C95.9273 184.358 96.2832 184.665 96.9917 184.856V185.499C96.0002 185.431 94.9827 185.36 93.9877 185.36C92.9685 185.36 91.9475 185.431 90.9282 185.499V184.856C91.8086 184.689 92.1142 184.498 92.1142 183.957C92.1142 183.628 91.9944 183.082 91.8763 182.772L91.1175 180.484H86.4952L85.4534 183.273C85.3336 183.599 85.2642 183.861 85.2642 184.099C85.2642 184.523 85.5958 184.804 86.3789 184.856V185.499C85.5784 185.431 84.745 185.36 83.9376 185.36C83.111 185.36 82.3019 185.431 81.4736 185.499V184.854ZM90.5497 178.688C90.0531 177.148 89.6485 175.639 89.1779 173.252H89.1293C88.5824 175.143 87.8253 177.009 87.2124 178.688H90.5497Z" fill="white"/>
<path d="M109.672 179.959C109.672 179.01 109.244 178.963 108.181 178.938V178.148C109.148 178.22 110.124 178.291 111.119 178.291C112.181 178.291 113.225 178.22 114.289 178.148V178.892C113.461 178.916 113.034 179.13 113.034 180.194V185.497H111.657L111.117 183.911C109.62 185.313 108.056 185.808 106.443 185.808C101.989 185.808 99.1465 182.135 99.1465 177.869C99.1465 172.727 102.583 169.614 107.7 169.614C109.337 169.614 111.098 169.92 112.372 170.717C112.372 171.885 112.421 173.215 112.517 174.853H111.836C111.525 172.741 109.528 171.705 107.558 171.705C104.265 171.705 102.656 174.221 102.656 177.277C102.656 180.218 104.316 183.535 107.061 183.535C108.745 183.535 109.671 182.753 109.671 181.661L109.672 179.959Z" fill="white"/>
<path d="M119.049 171.502C119.049 170.84 118.768 170.531 117.962 170.508V169.859C118.722 169.93 119.691 170.001 120.686 170.001C121.917 170.001 122.892 169.93 123.838 169.859V170.508C122.819 170.555 122.56 170.745 122.56 171.668V180.522C122.56 183.201 123.673 183.726 125.593 183.726C127.512 183.726 128.627 183.153 128.627 180.522V171.668C128.627 170.745 128.366 170.555 127.345 170.508V169.859C128.297 169.93 129.262 170.001 130.497 170.001C131.49 170.001 132.464 169.93 133.221 169.859V170.508C132.416 170.533 132.131 170.84 132.131 171.502V180.027C132.131 184.406 129.856 185.806 125.592 185.806C121.322 185.806 119.045 184.406 119.045 180.354V171.502" fill="white"/>
<path d="M138.238 171.583C138.238 170.918 137.955 170.609 137.149 170.587V169.937H149.121C149.144 171.241 149.192 172.299 149.311 173.58H148.663C148.423 172.276 148.097 171.828 146.812 171.828H141.745V176.334H144.895C145.956 176.334 146.126 175.98 146.268 175.125H146.914C146.843 175.718 146.777 176.739 146.777 177.374C146.777 178.018 146.843 179.06 146.914 179.631H146.268C146.126 178.779 145.956 178.419 144.895 178.419H141.745V183.411H147.076C148.352 183.411 148.758 182.988 149.156 180.993H149.948C149.732 182.939 149.687 184.196 149.661 185.497H137.149V184.851C137.955 184.825 138.238 184.521 138.238 183.854V171.583Z" fill="white"/>
<path fill-rule="evenodd" clip-rule="evenodd" d="M153.629 191.885C155.171 191.885 156.487 190.689 156.487 189.048C156.487 187.419 155.169 186.223 153.629 186.223C152.07 186.223 150.752 187.417 150.752 189.048C150.752 190.687 152.07 191.885 153.629 191.885ZM151.318 189.048C151.318 187.707 152.328 186.697 153.629 186.697C154.905 186.697 155.916 187.707 155.916 189.048C155.916 190.411 154.905 191.413 153.629 191.413C152.328 191.413 151.318 190.411 151.318 189.048ZM153.028 189.27H153.599L154.459 190.687H155.008L154.08 189.251C154.561 189.19 154.928 188.933 154.928 188.346C154.928 187.705 154.546 187.417 153.775 187.417H152.53V190.687H153.026L153.028 189.27ZM153.028 188.85V187.837H153.704C154.047 187.837 154.414 187.912 154.414 188.317C154.414 188.822 154.042 188.85 153.62 188.85H153.028Z" fill="white"/>
<path d="M66.821 121.176L68.8119 119.556L73.4604 125.247C74.4164 126.41 75.9526 127.397 78.0269 125.653C79.8075 123.918 79.0065 122.44 77.6505 120.828L73.5186 115.747L75.5507 114.07L80.1333 119.742C81.1846 120.98 81.6779 122.052 81.6779 123.543C81.6779 125.278 80.6996 126.727 79.3089 127.918C78.4766 128.609 77.1475 129.202 75.7583 129.202C73.8061 129.202 72.5508 128.265 71.6141 127.16L66.821 121.176Z" fill="white"/>
<path d="M87.2851 119.159L85.6838 111.342C85.4432 110.351 85.629 109.899 86.7069 109.644L94.1178 108.113L94.642 110.541L88.3232 111.792L88.9332 114.599L94.6832 113.401L95.2246 115.745L89.422 116.968L89.7237 118.317C90.0103 119.426 90.4889 119.665 91.7327 119.382L96.2367 118.455L96.7917 120.855L92.176 121.803C88.5874 122.442 87.6872 120.841 87.2851 119.159Z" fill="white"/>
<path d="M105.424 121.698L104.353 121.451C103.307 121.169 102.86 120.936 103.351 119.275L105.3 111.84C106.159 108.822 108.803 109.185 110.394 109.547L114.905 110.728L114.26 113.124L110.106 112.005C108.946 111.672 108.082 111.483 107.731 112.773L107.367 114.256L113.031 115.705L112.399 118.039L106.715 116.549L105.424 121.698Z" fill="white"/>
<path d="M116.248 125.623L113.829 124.196L124.633 117.222C125.401 116.69 126.037 116.639 126.53 117.064L127.012 117.492C127.46 117.947 127.574 118.018 127.021 119.923L123.686 131.598L121.53 129.621L122.23 127.232L119.786 125.282L121.969 123.881L122.985 124.691L124.249 120.421L116.248 125.623Z" fill="white"/>
</g>
<defs>
<clipPath id="clip0_1_2">
<rect width="200" height="191.985" fill="white"/>
</clipPath>
</defs>
</svg>
